Patient4_TMGait_0pt6_01_right_22_GRF.mot
version=1
nRows=78
nColumns=19
inDegrees=no
endheader
time	F1x	F1y	F1z	M1x	M1y	M1z	F2x	F2y	F2z	M2x	M2y	M2z	EC1x	EC1y	EC1z	EC2x	EC2y	EC2z
26.15	-20.0548	741.8504	56.9109	-287.9805	-56.6105	675.3355	-7.1939	2.0314	-4.5376	1.726	5.1759	-0.043807	-0.0592	0.0182	-0.0073	-0.0462	0.0165	0.9585
26.1626	-14.5695	737.6864	57.2034	-285.7125	-55.2582	672.6046	-4.9584	2.1708	-3.1169	1.4954	3.5814	0.73111	-0.0592	0.0182	-0.0073	-0.0462	0.0165	0.9585
26.1751	-9.7219	734.3751	57.5457	-283.6836	-54.0019	669.6668	-3.0837	2.3393	-1.9047	1.3092	2.2302	1.4637	-0.0592	0.0182	-0.0073	-0.0462	0.0165	0.9585
26.1877	-5.7696	732.5363	57.9516	-282.1778	-52.9331	667.005	-1.6736	2.5282	-0.97217	1.1818	1.2016	2.1028	-0.0592	0.0182	-0.0073	-0.0462	0.0165	0.9585
26.2003	-2.6997	732.4798	58.4029	-281.356	-52.05	664.9694	-0.71504	2.7176	-0.32038	1.1109	0.49187	2.6195	-0.0592	0.0182	-0.0073	-0.0462	0.0165	0.9585
26.2129	-0.3613	734.155	58.8853	-281.2345	-51.316	663.6595	-0.14811	2.8926	0.092652	1.0849	0.054526	3.0192	-0.0592	0.0182	-0.0073	-0.0462	0.0165	0.9585
26.2254	1.4509	737.2186	59.3475	-281.7099	-50.6495	662.9381	0.11453	3.0215	0.3222	1.0818	-0.16945	3.2937	-0.0592	0.0182	-0.0073	-0.0462	0.0165	0.9585
26.238	2.954	741.1679	59.7582	-282.6047	-49.9784	662.5206	0.14648	3.0644	0.42487	1.0743	-0.23889	3.4267	-0.0592	0.0182	-0.0073	-0.0462	0.0165	0.9585
26.2506	4.3484	745.4607	60.0964	-283.7102	-49.2418	662.0707	0.030506	2.9573	0.44693	1.0273	-0.20935	3.3663	-0.0592	0.0182	-0.0073	-0.0462	0.0165	0.9585
26.2631	5.7899	749.6	60.3829	-284.8235	-48.4219	661.2571	-0.18088	2.6241	0.42387	0.90161	-0.12012	3.0489	-0.0592	0.0182	-0.0073	-0.0462	0.0165	0.9585
26.2757	7.3977	753.198	60.6372	-285.7748	-47.5071	659.8178	-0.43702	1.971	0.38051	0.65462	-0.002553	2.3802	-0.0592	0.0182	-0.0073	-0.0462	0.0165	0.9585
26.2883	9.2403	755.9766	60.8946	-286.4344	-46.511	657.574	-0.70465	0.90481	0.33707	0.2458	0.11354	1.2724	-0.0592	0.0182	-0.0073	-0.0462	0.0165	0.9585
26.3009	11.3395	757.7455	61.1715	-286.709	-45.443	654.4116	-0.93688	-0.65194	0.30443	-0.35707	0.1987	-0.34941	-0.0592	0.0182	-0.0073	-0.0462	0.0165	0.9585
26.3134	13.6772	758.3717	61.4846	-286.5273	-44.3234	650.2601	-1.063	-2.6974	0.29076	-1.1546	0.21928	-2.4715	-0.0592	0.0182	-0.0073	-0.0462	0.0165	0.9585
26.326	16.2322	757.7086	61.8316	-285.8209	-43.1598	645.0267	-0.99089	-5.1222	0.29809	-2.1014	0.14062	-4.9736	-0.0592	0.0182	-0.0073	-0.0462	0.0165	0.9585
26.3386	18.9444	755.5538	62.2203	-284.5091	-41.981	638.585	-0.59586	-7.6192	0.32495	-3.0752	-0.077362	-7.5407	-0.0592	0.0182	-0.0073	-0.0462	0.0165	0.9585
26.3511	21.7578	751.6936	62.6521	-282.5175	-40.8121	630.7932	0.26926	-9.5999	0.37031	-3.8444	-0.48259	-9.5755	-0.0592	0.0182	-0.0073	-0.0462	0.0165	0.9585
26.3637	24.6179	746.0154	63.1384	-279.8228	-39.6879	621.6124	1.7632	-10.1284	0.42656	-4.0391	-1.1248	-10.1424	-0.0592	0.0182	-0.0073	-0.0462	0.0165	0.9585
26.3763	27.4938	738.6049	63.6644	-276.4862	-38.6139	611.1762	4.0228	-7.8311	0.48221	-3.1175	-2.0424	-7.8668	-0.0592	0.0182	-0.0073	-0.0462	0.0165	0.9585
26.3889	30.3823	729.7174	64.1877	-272.6374	-37.5624	599.7431	7.1116	-0.89636	0.50538	-0.364	-3.227	-0.93301	-0.0592	0.0182	-0.0073	-0.0462	0.0165	0.9585
26.4014	33.3236	719.6573	64.6142	-268.4164	-36.4458	587.5881	10.9079	12.8374	0.46148	5.0762	-4.5943	12.8391	-0.0592	0.0182	-0.0073	-0.0462	0.0165	0.9585
26.414	36.3974	708.5871	64.8286	-263.894	-35.1469	574.838	15.0212	35.5988	0.29092	14.0853	-5.9254	35.688	-0.0592	0.0182	-0.0073	-0.0462	0.0165	0.9585
26.4266	39.632	696.3114	64.673	-258.9948	-33.5327	561.3483	18.6443	69.1728	-0.072218	27.3712	-6.8364	69.4093	-0.0592	0.0182	-0.0073	-0.0462	0.0165	0.9585
26.4391	42.9798	682.1183	63.9539	-253.4478	-31.4783	546.5769	20.497	114.1082	-0.71561	45.1551	-6.7395	114.5674	-0.0592	0.0182	-0.0073	-0.0462	0.0165	0.9585
26.4517	46.2389	664.7917	62.4397	-246.793	-28.8882	529.6311	18.9684	168.7393	-1.6594	66.7834	-4.9949	169.4953	-0.0592	0.0182	-0.0073	-0.0462	0.0165	0.9585
26.4643	49.0957	642.7597	59.9278	-238.4476	-25.7378	509.3536	13.0771	228.5694	-3.0009	90.4692	-1.1549	229.659	-0.0592	0.0182	-0.0073	-0.0462	0.0165	0.9585
26.4769	51.1591	614.5113	56.3161	-227.8546	-22.1051	484.65	4.1591	287.3771	-5.1829	113.7043	4.6827	288.7207	-0.0592	0.0182	-0.0073	-0.0462	0.0165	0.9585
26.4894	52.058	579.0084	51.675	-214.6295	-18.1945	454.7566	-5.6169	339.8075	-8.5575	134.3458	11.9646	341.0323	-0.0592	0.0182	-0.0073	-0.0462	0.0165	0.9585
26.502	51.5147	536.0065	46.2775	-198.6683	-14.3151	419.5064	-14.5961	384.1827	-12.7064	151.7254	19.6153	384.6444	-0.0592	0.0182	-0.0073	-0.0462	0.0165	0.9585
26.5146	49.4083	486.086	40.5096	-180.1672	-10.7908	379.3344	-21.7766	421.7513	-17.178	166.3574	26.7873	420.7015	-0.0592	0.0182	-0.0073	-0.0462	0.0165	0.9585
26.5271	45.7141	430.6037	34.7155	-159.6091	-7.8727	335.2688	-26.8095	455.0583	-21.4214	179.2803	32.8098	451.7416	-0.0592	0.0182	-0.0073	-0.0462	0.0165	0.9585
26.5397	40.4723	371.5573	29.122	-137.723	-5.7055	288.8169	-29.8194	486.8171	-25.2409	191.5742	37.5475	480.5292	-0.0592	0.0182	-0.0073	-0.0462	0.0165	0.9585
26.5523	33.8232	311.43	23.8933	-115.4219	-4.3608	241.84	-31.1131	519.2797	-28.5156	204.1248	41.0218	509.3492	-0.0592	0.0182	-0.0073	-0.0462	0.0165	0.9585
26.5649	26.0828	252.9588	19.1547	-93.7151	-3.8196	196.3902	-31.1265	554.0295	-31.4481	217.5172	43.618	539.8735	-0.0592	0.0182	-0.0073	-0.0462	0.0165	0.9585
26.5774	17.8236	198.7267	15.0141	-73.5651	-3.9469	154.3841	-30.3163	591.6041	-34.2675	231.9107	45.7525	572.7673	-0.0592	0.0182	-0.0073	-0.0462	0.0165	0.9585
26.59	9.8178	150.7247	11.5503	-55.7176	-4.5005	117.2775	-29.2045	631.2856	-37.334	246.9661	47.9758	607.5043	-0.0592	0.0182	-0.0073	-0.0462	0.0165	0.9585
26.6026	2.8457	109.9868	8.7645	-40.5694	-5.1708	85.7905	-28.2955	671.3798	-40.8437	261.9779	50.6669	642.6039	-0.0592	0.0182	-0.0073	-0.0462	0.0165	0.9585
26.6151	-2.541	76.6501	6.5522	-28.187	-5.655	59.9964	-27.9235	709.7917	-44.8619	276.1078	54.0113	676.1762	-0.0592	0.0182	-0.0073	-0.0462	0.0165	0.9585
26.6277	-6.096	50.3037	4.7834	-18.4248	-5.7544	39.5774	-28.1713	744.5075	-49.0637	288.589	57.7317	706.3644	-0.0592	0.0182	-0.0073	-0.0462	0.0165	0.9585
26.6403	-7.8119	30.2624	3.335	-11.026	-5.3761	24.0308	-28.8968	773.7267	-53.0359	298.7667	61.3871	731.4678	-0.0592	0.0182	-0.0073	-0.0462	0.0165	0.9585
26.6529	-7.8642	15.7106	2.1319	-5.6794	-4.5376	12.7293	-29.8385	795.9439	-56.3666	306.1126	64.4956	750.0411	-0.0592	0.0182	-0.0073	-0.0462	0.0165	0.9585
26.6654	-6.7107	5.8448	1.1504	-2.074	-3.3988	5.0375	-30.6896	809.9998	-58.8554	310.2321	66.7624	760.9593	-0.0592	0.0182	-0.0073	-0.0462	0.0165	0.9585
26.678	-5.0586	-0.13837	0.42035	0.098842	-2.2463	0.34089	-31.1945	815.3046	-60.4019	310.9453	68.0061	763.6416	-0.0592	0.0182	-0.0073	-0.0462	0.0165	0.9585
26.6906	-3.3505	-3.2108	-0.054652	1.1994	-1.2631	-2.1026	-31.1489	812.0686	-61.0464	308.3729	68.2077	758.26	-0.0592	0.0182	-0.0073	-0.0462	0.0165	0.9585
26.7031	-1.8654	-4.2828	-0.33132	1.565	-0.51027	-2.975	-30.4326	801.4512	-60.8288	302.9963	67.3778	745.868	-0.0592	0.0182	-0.0073	-0.0462	0.0165	0.9585
26.7157	-0.69429	-4.1473	-0.44575	1.4867	-0.00059056	-2.9173	-29.0001	785.4351	-59.8693	295.6054	65.6272	728.2758	-0.0592	0.0182	-0.0073	-0.0462	0.0165	0.9585
26.7283	0.12862	-3.3808	-0.46828	1.1794	0.31678	-2.3604	-26.8924	766.5202	-58.3042	287.1765	63.1088	707.7741	-0.0592	0.0182	-0.0073	-0.0462	0.0165	0.9585
26.7409	0.66507	-2.3862	-0.42457	0.79262	0.47922	-1.6254	-24.2379	747.3078	-56.3146	278.7177	60.0453	686.7327	-0.0592	0.0182	-0.0073	-0.0462	0.0165	0.9585
26.7534	0.95183	-1.3963	-0.36543	0.41282	0.54363	-0.87738	-21.2169	730.2113	-54.0789	271.1523	56.6687	667.3453	-0.0592	0.0182	-0.0073	-0.0462	0.0165	0.9585
26.766	1.0703	-0.54996	-0.30141	0.089261	0.54022	-0.22496	-18.0195	717.1389	-51.8217	265.202	53.2491	651.3357	-0.0592	0.0182	-0.0073	-0.0462	0.0165	0.9585
26.7786	1.0806	0.11806	-0.25053	-0.1668	0.50618	0.31174	-14.8481	709.3179	-49.7573	261.3235	50.0382	639.8146	-0.0592	0.0182	-0.0073	-0.0462	0.0165	0.9585
26.7911	1.0292	0.60717	-0.20829	-0.3563	0.45284	0.72647	-11.8595	707.2549	-48.0887	259.6957	47.2601	633.2313	-0.0592	0.0182	-0.0073	-0.0462	0.0165	0.9585
26.8037	0.95353	0.9463	-0.18073	-0.48875	0.40007	1.0293	-9.1699	710.7684	-46.9585	260.2366	45.0612	631.4152	-0.0592	0.0182	-0.0073	-0.0462	0.0165	0.9585
26.8163	0.86721	1.1788	-0.16142	-0.57614	0.35202	1.2605	-6.8218	719.0353	-46.4408	262.6271	43.5018	633.6189	-0.0592	0.0182	-0.0073	-0.0462	0.0165	0.9585
26.8289	0.79043	1.3173	-0.14818	-0.62197	0.31835	1.4103	-4.7968	730.7725	-46.5141	266.3771	42.5395	638.7037	-0.0592	0.0182	-0.0073	-0.0462	0.0165	0.9585
26.8414	0.70432	1.3705	-0.13523	-0.62481	0.28506	1.4852	-3.024	744.4115	-47.0908	270.8942	42.0619	645.2937	-0.0592	0.0182	-0.0073	-0.0462	0.0165	0.9585
26.854	0.62147	1.2945	-0.11504	-0.57049	0.24183	1.4317	-1.4209	758.2757	-48.0357	275.551	41.9164	651.9502	-0.0592	0.0182	-0.0073	-0.0462	0.0165	0.9585
26.8666	0.51464	1.0308	-0.076879	-0.4389	0.16653	1.2104	0.11035	770.7498	-49.2083	279.745	41.9448	657.3148	-0.0592	0.0182	-0.0073	-0.0462	0.0165	0.9585
26.8791	0.39363	0.49682	-0.0099402	-0.20198	0.050548	0.72218	1.6796	780.411	-50.4795	282.9479	42.001	660.2204	-0.0592	0.0182	-0.0073	-0.0462	0.0165	0.9585
26.8917	0.258	-0.38188	0.090134	0.17039	-0.10727	-0.10494	3.3767	786.1726	-51.7261	284.7571	41.9487	659.8068	-0.0592	0.0182	-0.0073	-0.0462	0.0165	0.9585
26.9043	0.14565	-1.6728	0.21123	0.70436	-0.27755	-1.3585	5.2853	787.4551	-52.843	284.9572	41.673	655.6493	-0.0592	0.0182	-0.0073	-0.0462	0.0165	0.9585
26.9169	0.091915	-3.3912	0.33969	1.4054	-0.42649	-3.0638	7.4379	784.3186	-53.7534	283.5643	41.0996	647.8773	-0.0592	0.0182	-0.0073	-0.0462	0.0165	0.9585
26.9294	0.16722	-5.4529	0.43523	2.2379	-0.48549	-5.1467	9.8304	777.4668	-54.4369	280.8309	40.2166	637.1272	-0.0592	0.0182	-0.0073	-0.0462	0.0165	0.9585
26.942	0.47517	-7.6106	0.44684	3.0987	-0.36158	-7.3607	12.4019	768.2385	-54.9293	277.2366	39.0787	624.5637	-0.0592	0.0182	-0.0073	-0.0462	0.0165	0.9585
26.9546	1.1215	-9.3785	0.29091	3.7864	0.074216	-9.2095	15.1083	758.3284	-55.3138	273.3934	37.7771	611.6044	-0.0592	0.0182	-0.0073	-0.0462	0.0165	0.9585
26.9671	2.2439	-9.97	-0.12998	3.977	0.97663	-9.8948	17.8778	749.4011	-55.6675	269.9028	36.4058	599.6274	-0.0592	0.0182	-0.0073	-0.0462	0.0165	0.9585
26.9797	3.9546	-8.2079	-0.93843	3.1922	2.5142	-8.2032	20.7119	742.6606	-56.0313	267.1984	35.0137	589.6027	-0.0592	0.0182	-0.0073	-0.0462	0.0165	0.9585
26.9923	6.3145	-2.5451	-2.2468	0.80237	4.8164	-2.5631	23.657	738.5372	-56.398	265.4341	33.5961	581.8657	-0.0592	0.0182	-0.0073	-0.0462	0.0165	0.9585
27.0049	9.254	8.882	-4.1436	-3.9468	7.9265	8.9189	26.8078	736.5621	-56.7079	264.4411	32.0873	576.0328	-0.0592	0.0182	-0.0073	-0.0462	0.0165	0.9585
27.0174	12.5143	28.0127	-6.6181	-11.8378	11.7045	28.1992	30.239	735.4226	-56.8596	263.7485	30.3981	571.0608	-0.0592	0.0182	-0.0073	-0.0462	0.0165	0.9585
27.03	15.5052	56.4443	-9.5004	-23.5066	15.7193	56.9016	33.9134	733.1954	-56.6914	262.6689	28.4327	565.4704	-0.0592	0.0182	-0.0073	-0.0462	0.0165	0.9585
27.0426	17.251	94.757	-12.3709	-39.1657	19.1425	95.6252	37.6884	727.6485	-56.0014	260.4094	26.1088	557.578	-0.0592	0.0182	-0.0073	-0.0462	0.0165	0.9585
27.0551	16.5034	141.6577	-14.5525	-58.2505	20.777	143.0954	41.2915	716.5808	-54.5772	256.1907	23.3784	545.7803	-0.0592	0.0182	-0.0073	-0.0462	0.0165	0.9585
27.0677	12.3441	193.2214	-15.0355	-79.1143	19.2361	195.3822	44.4251	698.0768	-52.2609	249.3413	20.2466	528.7011	-0.0592	0.0182	-0.0073	-0.0462	0.0165	0.9585
27.0803	5.5835	243.6049	-12.5833	-99.3279	13.6334	246.5471	46.7905	670.8374	-48.9812	239.4085	16.7819	505.4496	-0.0592	0.0182	-0.0073	-0.0462	0.0165	0.9585
27.0929	-2.064	288.5293	-7.074	-117.154	4.6226	292.0718	48.1918	634.4377	-44.8015	226.2479	13.1243	475.7613	-0.0592	0.0182	-0.0073	-0.0462	0.0165	0.9585
27.1054	-9.3558	327.4034	0.26041	-132.3882	-6.0075	331.159	48.5151	589.4446	-39.9059	210.0556	9.4529	440.12	-0.0592	0.0182	-0.0073	-0.0462	0.0165	0.9585
27.118	-15.5284	361.5132	8.6057	-145.6056	-17.0746	365.0412	47.7755	537.1399	-34.5807	191.2874	5.9649	399.4886	-0.0592	0.0182	-0.0073	-0.0462	0.0165	0.9585
